<svg xmlns="http://www.w3.org/2000/svg" width="32" height="32" enable-background="new 0 0 32 32" viewBox="0 0 32 32" id="blogger"><path fill="#FFF" d="M30.415,13.845c-0.114-0.519-0.438-1-0.807-1.201c-0.113-0.062-0.841-0.14-1.617-0.175
			c-1.301-0.058-1.446-0.083-1.857-0.324c-0.651-0.381-0.83-0.793-0.832-1.912c-0.003-2.137-0.893-4.122-2.65-5.913
			c-1.252-1.276-2.649-2.14-4.243-2.624c-0.381-0.116-1.236-0.155-4.098-0.189C9.819,1.455,8.822,1.547,7.293,2.156
			C4.475,3.279,2.449,5.645,1.71,8.678c-0.139,0.57-0.166,1.483-0.198,6.729c-0.041,6.571,0.004,7.536,0.415,8.838
			c0.339,1.076,0.682,1.735,1.387,2.671c1.343,1.783,3.357,3.07,5.37,3.434c0.958,0.173,12.775,0.216,13.985,0.051
			c2.105-0.287,3.754-1.13,5.302-2.711c1.12-1.144,1.82-2.381,2.278-4.024c0.19-0.683,0.206-1.015,0.241-5.022
			C30.516,15.619,30.494,14.202,30.415,13.845z M11,9.5h5c0.829,0,1.5,0.671,1.5,1.5s-0.671,1.5-1.5,1.5h-5
			c-0.829,0-1.5-0.671-1.5-1.5S10.171,9.5,11,9.5z M21,22.5H11c-0.829,0-1.5-0.671-1.5-1.5s0.671-1.5,1.5-1.5h10
			c0.829,0,1.5,0.671,1.5,1.5S21.829,22.5,21,22.5z"></path><path fill="#FFF" d="M30.415,13.845c-0.114-0.519-0.438-1-0.807-1.201c-0.113-0.062-0.841-0.14-1.617-0.175
			c-1.301-0.058-1.446-0.083-1.857-0.324c-0.651-0.381-0.83-0.793-0.832-1.912c-0.003-2.137-0.893-4.122-2.65-5.913
			c-1.252-1.276-2.649-2.14-4.243-2.624c-0.381-0.116-1.236-0.155-4.098-0.189C9.819,1.455,8.822,1.547,7.293,2.156
			C4.475,3.279,2.449,5.645,1.71,8.678c-0.139,0.57-0.166,1.483-0.198,6.729c-0.041,6.571,0.004,7.536,0.415,8.838
			c0.339,1.076,0.682,1.735,1.387,2.671c1.343,1.783,3.357,3.07,5.37,3.434c0.958,0.173,12.775,0.216,13.985,0.051
			c2.105-0.287,3.754-1.13,5.302-2.711c1.12-1.144,1.82-2.381,2.278-4.024c0.19-0.683,0.206-1.015,0.241-5.022
			C30.516,15.619,30.494,14.202,30.415,13.845z M11,9.5h5c0.829,0,1.5,0.671,1.5,1.5s-0.671,1.5-1.5,1.5h-5
			c-0.829,0-1.5-0.671-1.5-1.5S10.171,9.5,11,9.5z M21,22.5H11c-0.829,0-1.5-0.671-1.5-1.5s0.671-1.5,1.5-1.5h10
			c0.829,0,1.5,0.671,1.5,1.5S21.829,22.5,21,22.5z"></path><path fill="#FFB74D" d="M30.489,18.643c0.026-3.024,0.004-4.441-0.074-4.798c-0.114-0.519-0.438-1-0.807-1.201
		c-0.113-0.062-0.841-0.14-1.617-0.175c-1.301-0.058-1.446-0.083-1.857-0.324c-0.651-0.381-0.83-0.793-0.832-1.912
		c0-0.477-0.053-0.945-0.142-1.407C24.161,5.458,21.047,3,17.354,3H11c-4.418,0-8,3.582-8,8v12.813c0,2.01,0.891,3.808,2.295,5.034
		c1.042,0.757,2.213,1.291,3.388,1.503c0.958,0.173,12.775,0.216,13.985,0.051c2.105-0.287,3.754-1.13,5.302-2.711
		c1.12-1.144,1.82-2.381,2.278-4.024C30.438,22.982,30.455,22.65,30.489,18.643z M11,9.5h5c0.829,0,1.5,0.671,1.5,1.5
		s-0.671,1.5-1.5,1.5h-5c-0.829,0-1.5-0.671-1.5-1.5S10.171,9.5,11,9.5z M21,22.5H11c-0.829,0-1.5-0.671-1.5-1.5s0.671-1.5,1.5-1.5
		h10c0.829,0,1.5,0.671,1.5,1.5S21.829,22.5,21,22.5z"></path><path fill="#455A64" d="M16.929,31.003c-3.66,0-7.767-0.059-8.334-0.161c-2.137-0.386-4.261-1.742-5.68-3.625
		c-0.739-0.98-1.108-1.692-1.464-2.821c-0.43-1.365-0.479-2.374-0.438-8.992c0.034-5.383,0.06-6.215,0.212-6.844
		c0.185-0.759,0.45-1.488,0.787-2.167c0.123-0.248,0.424-0.349,0.67-0.226c0.248,0.123,0.349,0.423,0.226,0.67
		C2.603,7.45,2.364,8.109,2.196,8.797c-0.125,0.512-0.152,1.501-0.184,6.613c-0.041,6.479,0.003,7.453,0.392,8.685
		c0.321,1.019,0.64,1.631,1.309,2.521c1.272,1.688,3.163,2.9,5.059,3.243c0.914,0.166,12.675,0.205,13.829,0.047
		c1.996-0.271,3.542-1.063,5.012-2.565c1.056-1.079,1.721-2.253,2.154-3.809c0.172-0.618,0.188-0.984,0.222-4.892
		c0.01-1.158,0.037-4.234-0.063-4.687c-0.093-0.422-0.351-0.756-0.558-0.869c-0.064-0.012-0.65-0.081-1.401-0.115
		c-1.292-0.057-1.552-0.078-2.087-0.392c-0.91-0.533-1.077-1.207-1.079-2.342c-0.003-2-0.847-3.871-2.507-5.563
		c-1.196-1.219-2.515-2.035-4.031-2.495c-0.351-0.107-1.556-0.139-3.959-0.167C9.886,1.955,8.931,2.042,7.479,2.621
		c-0.723,0.288-1.4,0.667-2.013,1.126c-0.22,0.166-0.534,0.122-0.7-0.1c-0.166-0.221-0.121-0.535,0.1-0.7
		c0.684-0.513,1.438-0.935,2.243-1.255c1.61-0.642,2.619-0.738,7.208-0.684c3,0.035,3.792,0.075,4.238,0.21
		c1.681,0.51,3.138,1.411,4.455,2.752c1.85,1.885,2.79,3.992,2.793,6.262c0.002,1.042,0.162,1.234,0.585,1.481
		c0.3,0.176,0.338,0.199,1.626,0.256c0.57,0.025,1.567,0.09,1.834,0.235c0.496,0.27,0.911,0.871,1.057,1.533
		c0.077,0.348,0.118,1.29,0.086,4.91c-0.035,4.071-0.052,4.408-0.259,5.151c-0.481,1.727-1.223,3.035-2.403,4.24
		c-1.615,1.65-3.392,2.558-5.592,2.857C22.198,30.97,19.691,31.003,16.929,31.003z M21,23H11c-1.103,0-2-0.897-2-2s0.897-2,2-2h10
		c1.103,0,2,0.897,2,2S22.103,23,21,23z M11,20c-0.551,0-1,0.449-1,1s0.449,1,1,1h10c0.551,0,1-0.449,1-1s-0.449-1-1-1H11z M16,13
		h-5c-1.103,0-2-0.897-2-2s0.897-2,2-2h5c1.103,0,2,0.897,2,2S17.103,13,16,13z M11,10c-0.551,0-1,0.449-1,1s0.449,1,1,1h5
		c0.551,0,1-0.449,1-1s-0.449-1-1-1H11z"></path><circle cx="3.5" cy="5" r=".5" fill="#455A64"></circle></svg>